<?xml version="1.0" encoding="UTF-8" standalone="no"?>
<svg
   data-v-0dd9719b=""
   version="1.0"
   width="200"
   height="200"
   viewBox="0 0 35.62561717065916 35.62561717065916"
   preserveAspectRatio="xMidYMid meet"
   color-interpolation-filters="sRGB"
   style="margin: auto;"
   id="svg14"
   sodipodi:docname="fairspec-logo.svg"
   inkscape:version="1.4.2 (1:1.4.2+202505120737+ebf0e940d0)"
   xmlns:inkscape="http://www.inkscape.org/namespaces/inkscape"
   xmlns:sodipodi="http://sodipodi.sourceforge.net/DTD/sodipodi-0.dtd"
   xmlns="http://www.w3.org/2000/svg"
   xmlns:svg="http://www.w3.org/2000/svg">
  <sodipodi:namedview
     id="namedview14"
     pagecolor="#ffffff"
     bordercolor="#000000"
     borderopacity="0.25"
     inkscape:showpageshadow="2"
     inkscape:pageopacity="0.0"
     inkscape:pagecheckerboard="0"
     inkscape:deskcolor="#d1d1d1"
     inkscape:zoom="2.4555556"
     inkscape:cx="92.239817"
     inkscape:cy="110.56561"
     inkscape:window-width="1920"
     inkscape:window-height="1108"
     inkscape:window-x="0"
     inkscape:window-y="53"
     inkscape:window-maximized="1"
     inkscape:current-layer="svg14" />
  <!---->
  <g
     id="g7"
     style="margin:auto;overflow:visible"
     transform="matrix(0.34232362,0,0,0.34232362,-0.31836099,1.964937)">
	<polygon
   fill="#0067b5"
   points="44.32,46.2 22.63,8.63 16.19,19.77 29.19,42.29 3.19,42.29 0.93,46.2 "
   id="polygon2"
   style="fill:#2c7cfd;fill-opacity:1" />

	<polygon
   fill="#009fe8"
   points="48.49,38.75 70.18,1.18 57.31,1.18 44.31,23.69 31.31,1.18 26.8,1.18 "
   id="polygon3"
   style="fill:#8ec4fd;fill-opacity:1" />

	<polygon
   fill="#009fe8"
   points="57.49,38.81 100.87,38.81 94.44,27.66 68.43,27.66 81.44,5.15 79.18,1.24 "
   id="polygon4"
   style="fill:#8ec4fd;fill-opacity:1" />

	<polygon
   fill="#009fe8"
   points="61.62,46.39 83.31,83.96 89.74,72.81 76.74,50.3 102.74,50.3 105,46.39 "
   id="polygon5"
   style="fill:#8ec4fd;fill-opacity:1.0" />

	<polygon
   fill="#0067b5"
   points="57.45,53.83 35.75,91.41 48.62,91.41 61.62,68.89 74.62,91.41 79.13,91.41 "
   id="polygon6"
   style="fill:#2c7cfd;fill-opacity:1" />

	<polygon
   fill="#0067b5"
   points="48.44,53.78 5.05,53.78 11.49,64.92 37.49,64.92 24.5,87.43 26.75,91.34 "
   id="polygon7"
   style="fill:#2c7cfd;fill-opacity:1" />

</g>
  <defs
     v-gra="od"
     id="defs14" />
</svg>
